<svg width="512" height="512" viewBox="0 0 512 512" xmlns="http://www.w3.org/2000/svg">
  <rect width="512" height="512" rx="112" fill="#0a1210"/>
  <path d="M76 196c30-28 62-28 92 0s62 28 92 0 62-28 92 0 62 28 92 0"
        stroke="#34d1a8" stroke-width="26" stroke-linecap="round" fill="none"/>
  <path d="M76 276c30-28 62-28 92 0s62 28 92 0 62-28 92 0 62 28 92 0"
        stroke="#34d1a8" stroke-width="26" stroke-linecap="round" fill="none" opacity="0.62"/>
  <path d="M76 356c30-28 62-28 92 0s62 28 92 0 62-28 92 0 62 28 92 0"
        stroke="#34d1a8" stroke-width="26" stroke-linecap="round" fill="none" opacity="0.32"/>
</svg>
